<!DOCTYPE svg PUBLIC "-//W3C//DTD SVG 1.1//EN" "http://www.w3.org/Graphics/SVG/1.1/DTD/svg11.dtd">
<!-- Uploaded to: SVG Repo, www.svgrepo.com, Transformed by: SVG Repo Mixer Tools -->
<svg fill="#000000" height="800px" width="800px" version="1.1" id="Layer_1" xmlns="http://www.w3.org/2000/svg" xmlns:xlink="http://www.w3.org/1999/xlink" viewBox="0 0 512 512" xml:space="preserve" stroke="#000000" stroke-width="5.12">
<g id="SVGRepo_bgCarrier" stroke-width="0"/>
<g id="SVGRepo_tracerCarrier" stroke-linecap="round" stroke-linejoin="round"/>
<g id="SVGRepo_iconCarrier"> <g> <g> <path d="M140.8,192c-7.074,0-12.8,5.726-12.8,12.8v166.4H12.8C5.726,371.2,0,376.926,0,384c0,7.074,5.726,12.8,12.8,12.8h128 c7.074,0,12.8-5.726,12.8-12.8V204.8C153.6,197.726,147.874,192,140.8,192z"/> </g> </g> <g> <g> <path d="M486.4,268.8h-25.6V115.2c0-14.14-11.46-25.6-25.6-25.6h-76.8c-25.557,0-59.452,12.109-75.827,69.811 c-6.289,22.17-16.811,78.49-22.4,109.389H204.8V102.4c0-7.074-5.726-12.8-12.8-12.8s-12.8,5.726-12.8,12.8v192v51.2v25.6 c0,14.14,11.46,25.6,25.6,25.6h2.347c5.291,14.882,19.354,25.6,36.053,25.6s30.763-10.718,36.053-25.6h132.702 c5.291,14.882,19.354,25.6,36.053,25.6s30.763-10.718,36.053-25.6h2.338c14.14,0,25.6-11.46,25.6-25.6v-76.8 C512,280.26,500.54,268.8,486.4,268.8z M307.2,166.4c8.397-29.602,22.921-51.2,51.2-51.2h76.8v153.6 c-9.694,0-18.56,5.478-22.895,14.148L393.779,320h-50.372l-43.699-43.699c-3.712-3.712-8.576-5.7-13.67-6.613 C291.695,238.566,301.474,186.598,307.2,166.4z M243.2,396.8c-7.057,0-12.8-5.743-12.8-12.8s5.743-12.8,12.8-12.8 S256,376.943,256,384S250.257,396.8,243.2,396.8z M448,396.8c-7.057,0-12.8-5.743-12.8-12.8s5.743-12.8,12.8-12.8 s12.8,5.743,12.8,12.8S455.057,396.8,448,396.8z M486.4,371.2h-2.347c-5.291-14.882-19.354-25.6-36.053-25.6 s-30.763,10.718-36.053,25.6H279.253c-5.291-14.882-19.354-25.6-36.053-25.6c-16.7,0-30.763,10.718-36.053,25.6H204.8v-25.6v-51.2 h76.8l51.2,51.2h76.8l25.6-51.2h51.2V371.2z"/> </g> </g> </g>
</svg>